# AST/ASF file generated using VICON BodyLanguage
# -----------------------------------------------
:version 1.10
:name VICON
:units
  mass 1.0
  length 0.45
  angle deg
:documentation
   .ast/.asf automatically generated from VICON data using
   VICON BodyBuilder and BodyLanguage model FoxedUp or BRILLIANT.MOD
:root
   order TX TY TZ RX RY RZ
   axis XYZ
   position 0 0 0  
   orientation 0 0 0 
:bonedata
  begin
     id 1 
     name lhipjoint
     direction 0.535335 -0.74333 0.401095 
     length 2.04549 
     axis 0 0 0  XYZ
  end
  begin
     id 2 
     name lfemur
     direction 0.34202 -0.939693 0  
     length 6.95643  
     axis 0 0 20  XYZ
    dof rx ry rz
    limits (-160.0 20.0)
           (-70.0 70.0)
           (-60.0 70.0)
  end
  begin
     id 3 
     name ltibia
     direction 0.34192 -0.939729 0   
     length 5.55969   
     axis 0 0 20   XYZ
    dof rx
    limits (-10.0 170.0)
  end
  begin
     id 4 
     name lfoot
     direction 0.216943 -0.596046 0.773088   
     length 2.27918   
     axis -90 7.62852e-016 20   XYZ
    dof rx rz
    limits (-45.0 90.0)
           (-70.0 20.0)
  end
  begin
     id 5 
     name ltoes
     direction 1.53519e-011 -4.21748e-011 1   
     length 1.05562   
     axis -90 7.62852e-016 20   XYZ
    dof rx
    limits (-90.0 20.0)
  end
  begin
     id 6 
     name rhipjoint
     direction -0.576368 -0.719173 0.38806   
     length 2.1142  
     axis 0 0 0  XYZ 
  end
  begin
     id 7 
     name rfemur
     direction -0.34202 -0.939693 0   
     length 7.07928   
     axis 0 0 -20   XYZ
    dof rx ry rz
    limits (-160.0 20.0)
           (-70.0 70.0)
           (-70.0 60.0)
  end
  begin
     id 8 
     name rtibia
     direction -0.34202 -0.939693 0   
     length 5.79974   
     axis 0 0 -20   XYZ
    dof rx
    limits (-10.0 170.0)
 end
 begin
     id 9 
     name rfoot
     direction -0.189288 -0.520065 0.832888   
     length 2.42173  
     axis -90 -7.62852e-016 -20   XYZ
    dof rx rz
    limits (-45.0 90.0)
           (-20.0 70.0)
  end
  begin
     id 10 
     name rtoes
     direction -1.53574e-011 -4.21658e-011 1   
     length 1.14469   
     axis -90 -7.62852e-016 -20   XYZ
    dof rx
    limits (-90.0 20.0)
  end
  begin
     id 11 
     name lowerback
     direction -0.00135702 0.993803 0.111144   
     length 1.91308   
     axis 0 0 0   XYZ
    dof rx ry rz
    limits (-20.0 45.0)
           (-30.0 30.0)
           (-30.0 30.0)
  end
  begin
     id 12 
     name upperback
     direction -0.0056745 0.999813 0.0184631   
     length 1.9212   
     axis 0 0 0   XYZ
    dof rx ry rz
    limits (-20.0 45.0)
           (-30.0 30.0)
           (-30.0 30.0)
  end
  begin
     id 13 
     name thorax
     direction -0.00733434 0.999426 -0.0330788   
     length 1.94196   
     axis 0 0 0   XYZ
    dof rx ry rz
    limits (-20.0 45.0)
           (-30.0 30.0)
           (-30.0 30.0)
  end
  begin
     id 14 
     name lowerneck
     direction 0.0563074 0.996944 -0.0541571   
     length 2.34257   
     axis 0 0 0   XYZ
    dof rx ry rz
    limits (-20.0 45.0)
           (-30.0 30.0)
           (-30.0 30.0)
  end
  begin
     id 15 
     name upperneck
     direction -0.0544519 0.976166 -0.210085   
     length 2.32506   
     axis 0 0 0   XYZ
    dof rx ry rz
    limits (-20.0 45.0)
           (-30.0 30.0)
           (-30.0 30.0)
  end
  begin
     id 16
     name head
     direction -0.0226035 0.997615 -0.0652205  
     length 2.3648  
     axis 0 0 0   XYZ
    dof rx ry rz
    limits (-20.0 45.0)
           (-30.0 30.0)
           (-30.0 30.0)
  end
  begin
     id 17 
     name lclavicle
     direction 0.92109 0.381297 -0.0787716  
     length 4.0487  
     axis 0 0 0   XYZ
    dof ry rz
    limits (-20.0 10.0)
           (0.0 20.0)
  end
  begin
     id 18 
     name lhumerus
     direction 1 -4.48986e-011 3.56724e-027   
     length 4.94991   
     axis 180 -30 -90   XYZ
    dof rx ry rz
    limits (-60.0 90.0)
           (-90.0 90.0)
           (-90.0 90.0)
  end
  begin
     id 19
     name lradius
     direction 1 -4.48981e-011 8.62147e-027   
     length 2.7606   
     axis 180 -30 -90   XYZ
    dof rx
    limits (-10.0 170.0)
  end
  begin
     id 20
     name lwrist
     direction 1 -4.48989e-011 1.59799e-026   
     length 1.3803   
     axis -1.17785e-014 90 90   XYZ
    dof ry
    limits (-180.0 0.0)
 end
  begin
     id 21 
     name lhand
     direction 1 -4.48896e-011 3.19599e-026   
     length 0.843936   
     axis -2.03931e-014 90 90   XYZ
    dof rx rz
    limits (-90.0 90.0)
           (-45.0 45.0)
  end
  begin
     id 22 
     name lfingers
     direction 1 -4.48887e-011 6.39197e-026   
     length 0.680403   
     axis -4.07862e-014 90 90   XYZ
    dof rx
    limits (0.0 90.0)
  end
  begin
     id 23
     name lthumb
     direction 0.707107 -6.348e-011 0.707107   
     length 0.976926   
     axis -90 45 2.85299e-015   XYZ
    dof rx rz
    limits (-45.0 45.0)
           (-45.0 45.0)
  end
  begin
     id 24 
     name rclavicle
     direction -0.951104 0.307692 -0.026953   
     length 4.21801  
     axis 0 0 0   XYZ 
    dof ry rz
    limits (-10.0 20.0)
           (-20.0 0.0)
  end
  begin
     id 25 
     name rhumerus
     direction -1 -4.4896e-011 -1.8171e-018  
     length 4.32982   
     axis 180 30 90   XYZ
    dof rx ry rz
    limits (-90.0 60.0)
           (-90.0 90.0)
           (-90.0 90.0)
  end
  begin
     id 26 
     name rradius
     direction -1 -4.48959e-011 8.25165e-027   
     length 3.20057   
     axis 180 30 90   XYZ
    dof rx
    limits (-10.0 170.0)
  end
  begin
     id 27 
     name rwrist
     direction -1 -4.48997e-011 1.59799e-026   
     length 1.60029   
     axis -1.17785e-014 -90 -90   XYZ
    dof ry
    limits (-180.0 0.0)
  end
  begin
     id 28
     name rhand
     direction -1 -4.49023e-011 3.19599e-026   
     length 0.960433   
     axis -2.03931e-014 -90 -90   XYZ
    dof rx rz
    limits (-90.0 90.0)
           (-45.0 45.0)
  end
  begin
     id 29
     name rfingers
     direction -1 -4.48802e-011 6.39197e-026   
     length 0.774326   
     axis -4.07862e-014 -90 -90   XYZ
    dof rx
    limits (0.0 90.0)
  end
  begin
     id 30
     name rthumb
     direction -0.707107 -6.34876e-011 0.707107   
     length 1.11178   
     axis -90 -45 -2.85299e-015   XYZ
    dof rx rz
    limits (-45.0 45.0)
           (-45.0 45.0)
  end
:hierarchy
  begin
    root lhipjoint rhipjoint lowerback
    lhipjoint lfemur
    lfemur ltibia
    ltibia lfoot
    lfoot ltoes
    rhipjoint rfemur
    rfemur rtibia
    rtibia rfoot
    rfoot rtoes
    lowerback upperback
    upperback thorax
    thorax lowerneck lclavicle rclavicle
    lowerneck upperneck
    upperneck head
    lclavicle lhumerus
    lhumerus lradius
    lradius lwrist
    lwrist lhand lthumb
    lhand lfingers
    rclavicle rhumerus
    rhumerus rradius
    rradius rwrist
    rwrist rhand rthumb
    rhand rfingers
end

#!OML:ASF C:\KaitlinTest1\Natural Motions\Nikki\Session 2\Nikki.ASF
:FULLY-SPECIFIED
:DEGREES
192
root -13.6615 16.6528 4.62824 -125.333 87.6446 -133.912
lowerback -9.28843 -1.00626 2.82253
upperback -3.22466 -1.45739 -1.22165
thorax 1.75264 -0.698791 -3.0047
lowerneck -6.13051 -12.0005 -9.57306
upperneck 5.9729 41.3116 5.88587
head 166.75 61.29 -38.3615
rclavicle -5.39203e-015 -2.38542e-015
rhumerus -40.8385 -27.107 -79.7982
rradius 18.2373
rwrist 24.8505
rhand -36.1984 1.92499
rfingers 7.12502
rthumb -9.30121 -27.8498
lclavicle -5.39203e-015 -2.38542e-015
lhumerus -40.1678 14.5498 81.6137
lradius 21.9237
lwrist -39.4458
lhand -33.3639 2.69043
lfingers 7.12502
lthumb -6.56554 32.5687
rfemur -6.14933 -14.0937 20.109
rtibia 12.5748
rfoot -11.8609 10.5943
rtoes 2.22639e-014
lfemur -11.4658 14.4344 -18.9154
ltibia 15.6336
lfoot -4.8988 -15.6567
ltoes 4.13472e-014
193
root -13.6614 16.654 4.62891 -125.367 87.6252 -133.966
lowerback -9.18955 -1.00779 2.84154
upperback -3.21185 -1.46051 -1.20689
thorax 1.71114 -0.70155 -2.99814
lowerneck -6.14831 -11.9949 -9.6067
upperneck 5.91681 41.1908 5.84706
head 166.821 61.3324 -38.2798
rclavicle -2.14936e-014 4.37326e-015
rhumerus -40.961 -27.0961 -79.5543
rradius 18.2794
rwrist 24.9515
rhand -36.0951 2.10466
rfingers 7.12502
rthumb -9.20161 -27.6746
lclavicle -2.14936e-014 4.37326e-015
lhumerus -40.2552 14.0324 81.8488
lradius 22.2325
lwrist -39.0711
lhand -33.304 2.72994
lfingers 7.12502
lthumb -6.50766 32.61
rfemur -6.18098 -14.1077 20.1315
rtibia 12.5762
rfoot -11.8701 10.597
rtoes -2.70347e-014
lfemur -11.4957 14.4595 -18.905
ltibia 15.634
lfoot -4.87772 -15.6873
ltoes 1.27222e-014
194
root -13.6614 16.6542 4.6302 -125.398 87.6226 -134.031
lowerback -9.12988 -1.01442 2.83759
upperback -3.18392 -1.46967 -1.19112
thorax 1.70714 -0.706428 -2.9794
lowerneck -6.27601 -12.0131 -9.58758
upperneck 5.88837 41.2192 5.82838
head 166.755 61.2998 -38.3494
rclavicle 3.67752e-015 3.97569e-016
rhumerus -40.973 -26.7929 -79.5827
rradius 18.3948
rwrist 24.4685
rhand -36.1391 1.90215
rfingers 7.12502
rthumb -9.244 -27.8752
lclavicle 3.67752e-015 3.97569e-016
lhumerus -40.3558 14.1043 81.7382
lradius 22.4399
lwrist -39.1154
lhand -33.4355 2.24877
lfingers 7.12502
lthumb -6.63464 32.1248
rfemur -6.22475 -14.1267 20.1417
rtibia 12.5985
rfoot -11.8826 10.6259
rtoes -1.35174e-014
lfemur -11.5334 14.498 -18.9138
ltibia 15.6199
lfoot -4.86195 -15.7268
ltoes 1.59028e-015
195
root -13.6613 16.655 4.63096 -125.825 87.5927 -134.489
lowerback -9.02858 -1.01785 2.86002
upperback -3.14576 -1.47521 -1.22257
thorax 1.68898 -0.71013 -3.02329
lowerneck -6.39653 -12.0398 -9.50711
upperneck 5.85872 41.2479 5.85702
head 166.905 61.1572 -38.2651
rclavicle 6.58474e-016 9.54166e-015
rhumerus -41.0561 -27.0695 -79.3024
rradius 18.4153
rwrist 24.4779
rhand -35.7879 1.71436
rfingers 7.12502
rthumb -8.90517 -28.0777
lclavicle 6.58474e-016 9.54166e-015
lhumerus -40.3794 13.7934 81.7407
lradius 22.6736
lwrist -38.7331
lhand -33.5436 1.92673
lfingers 7.12502
lthumb -6.73901 31.7995
rfemur -6.2709 -14.2163 20.1713
rtibia 12.6265
rfoot -11.8993 10.676
rtoes -1.35174e-014
lfemur -11.566 14.518 -18.9101
ltibia 15.6094
lfoot -4.87372 -15.7848
ltoes -1.74931e-014
196
root -13.6623 16.6566 4.63176 -125.996 87.6336 -134.734
lowerback -8.94855 -1.0279 2.82257
upperback -3.13397 -1.48444 -1.22467
thorax 1.65745 -0.715504 -3.00341
lowerneck -6.50027 -12.0278 -9.50572
upperneck 5.81597 41.251 5.84836
head 167.029 61.0971 -38.1864
rclavicle -3.11843e-015 6.75868e-015
rhumerus -41.0876 -27.1063 -79.0633
rradius 18.2824
rwrist 24.5427
rhand -35.9193 1.95627
rfingers 7.12502
rthumb -9.03194 -27.8304
lclavicle -3.11843e-015 6.75868e-015
lhumerus -40.5131 13.2732 81.9626
lradius 23.0928
lwrist -37.9844
lhand -33.6526 1.86341
lfingers 7.12502
lthumb -6.84424 31.7328
rfemur -6.39241 -14.3009 20.1523
rtibia 12.6853
rfoot -11.962 10.7795
rtoes 1.59028e-014
lfemur -11.6448 14.4855 -18.9734
ltibia 15.5941
lfoot -4.87176 -15.7119
ltoes 5.24792e-014
197
root -13.6638 16.6581 4.63305 -126.416 87.6574 -135.245
lowerback -8.85603 -1.04336 2.78461
upperback -3.15726 -1.49951 -1.21536
thorax 1.58262 -0.724506 -2.97109
lowerneck -6.59508 -12.0434 -9.49226
upperneck 5.80109 41.2893 5.83206
head 166.966 61.0205 -38.2369
rclavicle 8.69683e-016 7.15625e-015
rhumerus -41.482 -27.6232 -78.2266
rradius 17.9663
rwrist 25.7252
rhand -36.1969 3.12033
rfingers 7.12502
rthumb -9.2998 -26.6546
lclavicle 8.69683e-016 7.15625e-015
lhumerus -40.7913 12.7703 82.1238
lradius 23.6571
lwrist -37.3195
lhand -33.6187 1.79325
lfingers 7.12502
lthumb -6.81146 31.6637
rfemur -6.54794 -14.3928 20.1469
rtibia 12.7741
rfoot -11.9781 10.8554
rtoes -7.15625e-015
lfemur -11.7506 14.5237 -19.0445
ltibia 15.5585
lfoot -4.85316 -15.7667
ltoes -1.43125e-014
198
root -13.6667 16.6583 4.63442 -127.037 87.7041 -135.933
lowerback -8.71373 -1.05833 2.7297
upperback -3.15361 -1.51269 -1.21556
thorax 1.50863 -0.732691 -2.93801
lowerneck -6.75197 -12.0617 -9.47635
upperneck 5.74476 41.2725 5.79482
head 166.921 60.9785 -38.2749
rclavicle -1.26228e-014 1.98785e-015
rhumerus -41.56 -27.4139 -78.1251
rradius 18.0655
rwrist 25.2826
rhand -36.1499 2.98184
rfingers 7.12502
rthumb -9.25445 -26.7951
lclavicle -1.26228e-014 1.98785e-015
lhumerus -40.9204 12.0289 82.5125
lradius 24.1672
lwrist -35.6572
lhand -33.7659 1.58391
lfingers 7.12502
lthumb -6.95356 31.4497
rfemur -6.67533 -14.477 20.1134
rtibia 12.8561
rfoot -12.0114 10.9368
rtoes -7.95139e-015
lfemur -11.8155 14.4339 -19.1199
ltibia 15.5357
lfoot -4.82815 -15.6566
ltoes -9.54166e-015
199
root -13.6698 16.6596 4.63538 -126.664 87.7446 -135.638
lowerback -8.61437 -1.03683 2.72776
upperback -3.10485 -1.48393 -1.23673
thorax 1.50583 -0.7189 -2.95439
lowerneck -6.96771 -12.0967 -9.41252
upperneck 5.64483 41.1741 5.76289
head 166.924 61.0487 -38.3073
rclavicle -2.73453e-014 -3.57812e-015
rhumerus -41.7549 -27.8746 -77.5554
rradius 17.9898
rwrist 25.6889
rhand -36.0951 3.20278
rfingers 7.12502
rthumb -9.20156 -26.5765
lclavicle -2.73453e-014 -3.57812e-015
lhumerus -41.0334 11.4888 82.5915
lradius 24.5184
lwrist -35.2285
lhand -34.0073 1.24256
lfingers 7.12502
lthumb -7.18664 31.1005
rfemur -6.82548 -14.4862 20.1113
rtibia 12.9614
rfoot -12.0706 10.9808
rtoes -1.98785e-014
lfemur -11.8958 14.399 -19.171
ltibia 15.5066
lfoot -4.79244 -15.5653
ltoes 4.77083e-015
200
root -13.6713 16.6611 4.6363 -126.607 87.7223 -135.625
lowerback -8.49873 -1.05481 2.75434
upperback -3.05721 -1.51082 -1.2123
thorax 1.4894 -0.733183 -2.94436
lowerneck -7.15624 -12.0954 -9.42781
upperneck 5.5886 41.2338 5.74006
head 167.079 60.8439 -38.2062
rclavicle 1.22998e-014 6.75868e-015
rhumerus -41.8285 -27.6962 -77.4043
rradius 18.1541
rwrist 25.2303
rhand -35.951 2.84029
rfingers 7.12502
rthumb -9.06248 -26.945
lclavicle 1.22998e-014 6.75868e-015
lhumerus -41.1721 10.6851 82.9796
lradius 25.0217
lwrist -33.4293
lhand -34.3943 1.15026
lfingers 7.12502
lthumb -7.56012 30.9951
rfemur -6.96917 -14.5717 20.1411
rtibia 13.1578
rfoot -12.2129 11.0249
rtoes -3.65764e-014
lfemur -11.9204 14.3892 -19.1742
ltibia 15.4326
lfoot -4.75303 -15.566
ltoes -3.18055e-015
201
root -13.6749 16.6632 4.63672 -125.36 87.8325 -134.489
lowerback -8.39179 -1.0149 2.71691
upperback -3.0524 -1.45357 -1.20479
thorax 1.4407 -0.705693 -2.90762
lowerneck -7.31977 -12.1087 -9.47287
upperneck 5.52427 41.246 5.70041
head 167.211 60.676 -38.1114
rclavicle 3.76448e-015 9.54166e-015
rhumerus -42.0401 -27.5963 -77.1087
rradius 18.305
rwrist 24.6834
rhand -35.9417 3.01595
rfingers 7.12502
rthumb -9.05355 -26.7698
lclavicle 3.76448e-015 9.54166e-015
lhumerus -41.331 10.1561 83.1489
lradius 25.3902
lwrist -32.2952
lhand -34.642 0.961969
lfingers 7.12502
lthumb -7.79927 30.7981
rfemur -7.21659 -14.595 20.1061
rtibia 13.3475
rfoot -12.2576 11.1301
rtoes -2.78299e-014
lfemur -12.0127 14.3197 -19.2662
ltibia 15.3732
lfoot -4.71336 -15.3846
ltoes 4.77083e-015
202
root -13.6814 16.6663 4.6376 -127.757 88.0262 -137.147
lowerback -8.37477 -1.01454 2.52879
upperback -3.1055 -1.4341 -1.26433
thorax 1.38132 -0.69617 -2.86027
lowerneck -7.50803 -12.1466 -9.42134
upperneck 5.4474 41.1753 5.65771
head 167.108 60.7072 -38.1987
rclavicle -2.00027e-015 -6.36111e-015
rhumerus -42.2696 -27.5447 -76.8112
rradius 18.4082
rwrist 24.2997
rhand -35.8808 2.94448
rfingers 7.12502
rthumb -8.99477 -26.8438
lclavicle -2.00027e-015 -6.36111e-015
lhumerus -41.5961 9.83232 83.0527
lradius 25.8313
lwrist -31.6647
lhand -34.6513 0.77714
lfingers 7.12502
lthumb -7.80821 30.613
rfemur -7.70323 -14.724 19.9419
rtibia 13.6725
rfoot -12.3992 11.2887
rtoes 1.19271e-014
lfemur -12.2595 14.2206 -19.5906
ltibia 15.2288
lfoot -4.60152 -15.2485
ltoes -1.59028e-014
203
root -13.6843 16.6673 4.63839 -127.122 88.05 -136.571
lowerback -8.15624 -0.997622 2.54018
upperback -3.10771 -1.40978 -1.25689
thorax 1.25995 -0.686863 -2.85153
lowerneck -7.73487 -12.1788 -9.40848
upperneck 5.40339 41.2884 5.65153
head 167.233 60.4541 -38.1469
rclavicle 1.06474e-014 8.74653e-015
rhumerus -42.5955 -27.7478 -76.2414
rradius 18.4338
rwrist 24.1723
rhand -35.8721 2.91873
rfingers 7.12502
rthumb -8.98641 -26.8699
lclavicle 1.06474e-014 8.74653e-015
lhumerus -41.8308 9.76951 82.8159
lradius 26.0933
lwrist -31.2673
lhand -34.7627 0.512348
lfingers 7.12502
lthumb -7.91572 30.3441
rfemur -7.94031 -14.7242 19.9592
rtibia 14.0096
rfoot -12.5364 11.2967
rtoes 3.49861e-014
lfemur -12.2685 14.2033 -19.6102
ltibia 15.0819
lfoot -4.45119 -15.192
ltoes -6.36111e-015
204
root -13.6799 16.6694 4.65348 -124.779 88.4236 -134.575
lowerback -8.44927 -0.92018 2.11658
upperback -3.09282 -1.27613 -1.29245
thorax 1.45585 -0.613905 -2.64445
lowerneck -8.01606 -12.2468 -9.32654
upperneck 5.29666 41.2084 5.60238
head 167.133 60.4453 -38.2462
rclavicle -3.09825e-014 -9.14409e-015
rhumerus -42.7834 -27.605 -76.0454
rradius 18.5808
rwrist 23.4728
rhand -35.8803 3.11045
rfingers 7.12502
rthumb -8.99428 -26.6778
lclavicle -3.09825e-014 -9.14409e-015
lhumerus -42.0004 9.29081 82.8443
lradius 26.4341
lwrist -29.9587
lhand -34.8491 0.595069
lfingers 7.12502
lthumb -7.99915 30.4237
rfemur -8.54322 -14.0517 19.8468
rtibia 14.339
rfoot -12.5594 10.8559
rtoes -6.44062e-014
lfemur -12.5855 14.1189 -19.8931
ltibia 14.9389
lfoot -4.30594 -14.8477
ltoes -2.70347e-014
